#File generated from solving marker data for model walk1.trc
name solved_motion
datacolumns 106
datarows 4
range 0.8750000000 0.9000000000
units unknown
enforce_loops no
enforce_constraints no
endheader

time	lower_torso_TX	lower_torso_TY	lower_torso_TZ	lower_torso_RX	lower_torso_RY	lower_torso_RZ	lumbar_roll	lumbar_yaw	lumbar_pitch	neck_roll	neck_yaw	neck_pitch	arm_add_r	arm_rot_r	arm_flex_r	elbow_flex_r	pro_sup_r	wrist_dev_r	wrist_flex_r	arm_add_l	arm_rot_l	arm_flex_l	pro_sup_l	wrist_dev_l	wrist_flex_l	hip_add_r	hip_rot_r	hip_flex_r	ankle_flex_r	subt_angle_r	toe_angle_r	hip_add_l	hip_rot_l	hip_flex_l	knee_flex_l	ankle_flex_l	subt_angle_l	toe_angle_l	knee_flex_r	R.Shoulder_px	R.Shoulder_py	R.Shoulder_pz	R.Scapula_px	R.Scapula_py	R.Scapula_pz	L.Shoulder_px	L.Shoulder_py	L.Shoulder_pz	R.ASIS_px	R.ASIS_py	R.ASIS_pz	V.Sacral_px	V.Sacral_py	V.Sacral_pz	L.ASIS_px	L.ASIS_py	L.ASIS_pz	R.Elbow_px	R.Elbow_py	R.Elbow_pz	R.Wrist_px	R.Wrist_py	R.Wrist_pz	L.Elbow_px	L.Elbow_py	L.Elbow_pz	L.Wrist_px	L.Wrist_py	L.Wrist_pz	R.Thigh_px	R.Thigh_py	R.Thigh_pz	R.Knee_px	R.Knee_py	R.Knee_pz	R.Shank_px	R.Shank_py	R.Shank_pz	R.Ankle_px	R.Ankle_py	R.Ankle_pz	R.Heel_px	R.Heel_py	R.Heel_pz	R.Toe_px	R.Toe_py	R.Toe_pz	L.Thigh_px	L.Thigh_py	L.Thigh_pz	L.Knee_px	L.Knee_py	L.Knee_pz	L.Shank_px	L.Shank_py	L.Shank_pz	L.Ankle_px	L.Ankle_py	L.Ankle_pz	L.Heel_px	L.Heel_py	L.Heel_pz	L.Toe_px	L.Toe_py	L.Toe_pz	
0.8750000000	-0.6958005821	0.3077914158	0.6980739699	86.3562301857	-12.0248801430	1.1764769041	0.0807722009	21.3016327005	-19.0962378162	0.0000000000	0.0000000000	0.0000000000	-41.4443250934	-9.9999999977	16.6262523188	39.4831711532	50.0000000036	0.0000000000	0.0000000000	-28.8774142497	10.0000000000	5.6684563340	70.0000000000	0.0000000000	0.0000000000	-1.1044035170	12.4229221407	35.3808030757	8.2408907562	20.0000000000	0.0000000000	1.3665118598	12.7590845203	49.2469822975	99.8422627143	30.0000000000	3.2096607962	-0.0450000000	110.3995168909	-0.6468880600	0.0994310600	1.1000942400	-0.8277912600	0.2277926200	1.1091104700	-0.7066299400	0.5471721200	1.1447117900	-0.6959788800	0.1689223600	0.7306177400	-0.8900239300	0.3600756800	0.7740965000	-0.6365150100	0.4394371300	0.7133958700	-0.6781127900	-0.0559394300	0.8799691800	-0.4586120900	-0.1219961900	0.7805796500	-0.8370522500	0.6703783000	0.9330702500	-0.8100992400	0.8222670300	0.7289404900	-0.6682276000	0.0391333700	0.4182240900	-0.6068276400	0.0980829800	0.2866052900	-0.7770651900	0.0265987100	0.2080082100	-0.9910444300	0.1075372100	0.1817181500	-1.0274873000	0.1398900500	0.2318060600	-0.9464770500	0.1597484900	0.0834394300	-0.4945842000	0.4617240300	0.3863805800	-0.4674769600	0.3733309300	0.3419150100	-0.6220837400	0.5257456700	0.1549147800	-0.7389015500	0.5010571000	0.0663627900	-0.8215234400	0.4928341700	0.0766615900	-0.6651958600	0.4256568000	0.0411664200	
0.8830000000	-0.6980667593	0.3113756912	0.6953453944	84.3310832519	-8.9319029206	0.1938430799	2.4651818148	19.0234988931	-19.9565394121	0.0000000000	0.0000000000	0.0000000000	-42.1379545334	-9.9999999977	16.7356884947	40.8289959601	50.0000000036	0.0000000000	0.0000000000	-29.5549799896	10.0000000000	7.1103025123	70.0000000000	0.0000000000	0.0000000000	-0.3250749843	8.4622548198	37.5105318345	9.2056190616	20.0000000000	0.0000000000	1.9039218237	16.6127916185	50.9576237992	100.4237810013	30.0000000000	4.9702513921	-0.0460000000	111.1135986349	-0.6375343000	0.1019968000	1.0990570100	-0.8204307300	0.2288209100	1.1086800500	-0.6981438000	0.5465835000	1.1423010300	-0.6917824700	0.1675078300	0.7310006700	-0.8849924300	0.3610285900	0.7747270500	-0.6636080300	0.4440087600	0.7044080800	-0.6733881800	-0.0574446300	0.8807429200	-0.4549246200	-0.1204548000	0.7770377200	-0.8284877300	0.6717233300	0.9312043500	-0.8004268200	0.8259732100	0.7298126800	-0.6568714000	0.0383042200	0.4195117200	-0.5955181900	0.0967812800	0.2904566000	-0.7658822600	0.0276076500	0.2093353400	-0.9765861800	0.1085877200	0.1812393500	-1.0181269500	0.1403296100	0.2325716600	-0.9317851600	0.1585709500	0.0856155500	-0.4939448900	0.4620342100	0.3850836800	-0.4692142900	0.3755822400	0.3363358500	-0.6187132600	0.5253897700	0.1549065700	-0.7416142600	0.5029975600	0.0689938100	-0.8208316700	0.4929882500	0.0777143600	-0.6651958600	0.4256568000	0.0411664200	
0.8920000000	-0.6928847497	0.3088022260	0.6949270426	84.0281874857	-8.6939239161	0.3002700057	2.4235392956	18.7565561245	-20.3267682703	0.0000000000	0.0000000000	0.0000000000	-41.4671034613	-9.9999999977	17.2060049660	39.7398882142	50.0000000036	0.0000000000	0.0000000000	-29.9860509797	10.0000000000	7.7205650194	70.0000000000	0.0000000000	0.0000000000	0.3211707257	7.7061879292	38.5872605814	9.6887323332	18.6168367458	0.0000000000	1.6011013836	17.1179058674	50.6545965347	100.8845721161	30.0000000000	5.9779478989	-0.0470000000	111.7597737660	-0.6307278400	0.1006587400	1.0981579600	-0.8128958700	0.2286134300	1.1087498800	-0.6902722800	0.5480862400	1.1416674800	-0.6847348000	0.1679715700	0.7311568000	-0.8775664700	0.3588009600	0.7736138900	-0.6646030300	0.4347851300	0.7035900900	-0.6665174600	-0.0554155700	0.8789113200	-0.4513780200	-0.1216473800	0.7743908700	-0.8213554700	0.6725620700	0.9303272100	-0.7889470200	0.8258271500	0.7263990500	-0.6451731600	0.0375240600	0.4218851300	-0.5793438100	0.0970862600	0.2936077300	-0.7543200100	0.0292357100	0.2111527100	-0.9628264800	0.1089698000	0.1814521000	-1.0046967200	0.1422862100	0.2315856000	-0.9151848800	0.1569436300	0.0848311700	-0.4882379200	0.4614529100	0.3810422100	-0.4637492400	0.3746423600	0.3373110000	-0.6145219700	0.5238718300	0.1531039400	-0.7387276000	0.5029552300	0.0698734500	-0.8204001500	0.4934353600	0.0813771900	-0.6648681000	0.4253976100	0.0413838200	
0.9000000000	-0.6851101899	0.3106480331	0.6948210012	84.0776513280	-8.1435420266	0.2058140064	2.6261601488	18.3884258720	-20.0745777679	0.0000000000	0.0000000000	0.0000000000	-41.2810489398	-9.9999999977	16.6081151142	40.1060078422	50.0000000036	0.0000000000	0.0000000000	-29.9010455783	10.0000000000	8.4807237152	70.0000000000	0.0000000000	0.0000000000	-0.3948224495	7.0740980362	39.6175413740	9.8929169996	17.8134696992	0.0000000000	2.1142918852	17.1344228696	50.3248337560	101.0922135039	30.0000000000	5.9113623115	-0.0480000000	111.8261132043	-0.6249769300	0.1016539900	1.0977536600	-0.8036257900	0.2292178000	1.1100921600	-0.6845604200	0.5486356200	1.1428725600	-0.6745301500	0.1699974100	0.7303765300	-0.8711572900	0.3590641800	0.7733414900	-0.6569871800	0.4363719800	0.7038535800	-0.6618117100	-0.0547244300	0.8798118300	-0.4453978900	-0.1208309900	0.7729267600	-0.8131875000	0.6735866700	0.9285988200	-0.7758209200	0.8257006200	0.7271632700	-0.6343601700	0.0375982800	0.4252737100	-0.5706923200	0.0953570500	0.2985603300	-0.7395982100	0.0281265400	0.2128745700	-0.9481703500	0.1101147400	0.1795201400	-0.9903834800	0.1423371600	0.2302972700	-0.8979351800	0.1552071800	0.0839000200	-0.4872349900	0.4637012600	0.3791338800	-0.4568694500	0.3730699500	0.3353455200	-0.6125795900	0.5232760600	0.1503152500	-0.7393618200	0.5033713400	0.0722924700	-0.8182908300	0.4930538900	0.0821220700	-0.6628690200	0.4250441000	0.0412344600	
